<svg width="20" height="20" viewBox="0 0 20 20" fill="none" xmlns="http://www.w3.org/2000/svg">
<path d="M5.83301 16.666H14.1663" stroke="white" stroke-width="1.66667" stroke-linecap="round" stroke-linejoin="round"/>
<path d="M8.33301 16.6673C12.9163 14.584 8.99967 11.334 10.833 8.33398" stroke="white" stroke-width="1.66667" stroke-linecap="round" stroke-linejoin="round"/>
<path d="M7.91634 7.83349C8.83301 8.50016 9.41634 9.66683 9.83301 10.9168C8.16634 11.2502 6.91634 11.2502 5.83301 10.6668C4.83301 10.1668 3.91634 9.08349 3.33301 7.16683C5.66634 6.75016 6.99967 7.16683 7.91634 7.83349Z" stroke="white" stroke-width="1.66667" stroke-linecap="round" stroke-linejoin="round"/>
<path d="M11.7498 5.00065C11.1145 5.99362 10.7949 7.15577 10.8332 8.33398C12.4165 8.25065 13.5832 7.83398 14.4165 7.16732C15.2498 6.33398 15.7498 5.25065 15.8332 3.33398C13.5832 3.41732 12.4998 4.16732 11.7498 5.00065Z" stroke="white" stroke-width="1.66667" stroke-linecap="round" stroke-linejoin="round"/>
</svg>
